<svg xmlns="http://www.w3.org/2000/svg" xml:space="preserve" id="Capa_1" width="800" height="800" fill="currentColor" viewBox="0 0 488.477 488.477"><path d="M472.227 35.998H16.25C7.29 35.998 0 43.288 0 52.248v383.98c0 8.961 7.29 16.25 16.25 16.25h455.977c8.96 0 16.25-7.289 16.25-16.25V52.248c0-8.96-7.29-16.25-16.25-16.25M8.5 269.795a122.5 122.5 0 0 1 28.452-17.27c29.968-12.996 63.203-13.544 93.585-1.541 30.38 12.002 54.269 35.117 67.265 65.087 13.004 29.988 13.292 64.555.883 95.235H8.5zm197.1 42.894c-13.899-32.053-39.448-56.774-71.94-69.61-32.492-12.837-68.039-12.251-100.09 1.648A131.2 131.2 0 0 0 8.5 259.051v-71.738l37.286-16.169 10.427 24.048a4.245 4.245 0 0 0 4.527 2.512 168 168 0 0 1 44.209-.718 4.25 4.25 0 0 0 4.444-2.66l9.636-24.388 75.301 29.748-9.635 24.388a4.25 4.25 0 0 0 1.426 4.979 168 168 0 0 1 31.79 30.752 4.25 4.25 0 0 0 5.35 1.103l23.714-10.283 32.21 74.282-23.667 10.263-.086.029a4.25 4.25 0 0 0-2.811 4.645 167.8 167.8 0 0 1 .722 44.23 4.25 4.25 0 0 0 2.661 4.444l24.389 9.632-5.198 13.156h-67.388c11.981-31.975 11.251-67.58-2.207-98.617m78.13 77.64-21.597-8.529a176.2 176.2 0 0 0-.65-39.954l21.293-9.234c4.183-1.813 6.108-6.698 4.293-10.89l-32.383-74.68c-1.818-4.189-6.698-6.122-10.882-4.309l-21.295 9.234a176.3 176.3 0 0 0-28.72-27.779l8.531-21.595c1.673-4.237-.418-9.052-4.667-10.735l-75.706-29.908c-4.247-1.675-9.066.41-10.74 4.649l-8.532 21.594a176.4 176.4 0 0 0-39.951.649l-9.235-21.297c-1.817-4.183-6.703-6.104-10.891-4.286L8.5 178.047v-75.241h471.477v43.833h-88.882a4.25 4.25 0 0 0 0 8.5h88.882v256.167H284.333l4.043-10.233c1.676-4.248-.407-9.067-4.646-10.744M16.25 44.498h455.977c4.273 0 7.75 3.476 7.75 7.75v15.058H170.095a4.25 4.25 0 0 0 0 8.5h309.882v18.5H8.5V52.248c0-4.273 3.477-7.75 7.75-7.75m455.977 399.48H16.25c-4.273 0-7.75-3.477-7.75-7.75v-16.423h471.477v16.423c0 4.274-3.477 7.75-7.75 7.75"/><path d="M38.095 84.806c8.409 0 15.25-6.841 15.25-15.25s-6.841-15.25-15.25-15.25-15.25 6.841-15.25 15.25 6.841 15.25 15.25 15.25m0-22c3.722 0 6.75 3.028 6.75 6.75s-3.028 6.75-6.75 6.75-6.75-3.028-6.75-6.75 3.028-6.75 6.75-6.75m42.5 22c8.409 0 15.25-6.841 15.25-15.25s-6.841-15.25-15.25-15.25-15.25 6.841-15.25 15.25 6.841 15.25 15.25 15.25m0-22c3.722 0 6.75 3.028 6.75 6.75s-3.028 6.75-6.75 6.75-6.75-3.028-6.75-6.75 3.028-6.75 6.75-6.75m42.5 22c8.409 0 15.25-6.841 15.25-15.25s-6.841-15.25-15.25-15.25-15.25 6.841-15.25 15.25 6.841 15.25 15.25 15.25m0-22c3.722 0 6.75 3.028 6.75 6.75s-3.028 6.75-6.75 6.75-6.75-3.028-6.75-6.75 3.028-6.75 6.75-6.75M52.633 288.691a4.25 4.25 0 0 0 3.382 7.798c37.625-16.315 81.507 1.022 97.823 38.646a4.25 4.25 0 1 0 7.798-3.382c-18.18-41.923-67.079-61.241-109.003-43.062"/></svg>