<svg width="21" height="21" viewBox="0 0 21 21" fill="none" xmlns="http://www.w3.org/2000/svg">
<path d="M4.33333 16.5556C4.33333 14.3333 8.77778 13.1111 11 13.1111C13.2222 13.1111 17.6667 14.3333 17.6667 16.5556V17.6667H4.33333M14.3333 7.66667C14.3333 8.55072 13.9821 9.39857 13.357 10.0237C12.7319 10.6488 11.8841 11 11 11C10.1159 11 9.2681 10.6488 8.64298 10.0237C8.01786 9.39857 7.66667 8.55072 7.66667 7.66667C7.66667 6.78261 8.01786 5.93477 8.64298 5.30964C9.2681 4.68452 10.1159 4.33333 11 4.33333C11.8841 4.33333 12.7319 4.68452 13.357 5.30964C13.9821 5.93477 14.3333 6.78261 14.3333 7.66667ZM1 3.22222V18.7778C1 19.3671 1.23413 19.9324 1.65087 20.3491C2.06762 20.7659 2.63285 21 3.22222 21H18.7778C19.3671 21 19.9324 20.7659 20.3491 20.3491C20.7659 19.9324 21 19.3671 21 18.7778V3.22222C21 2.63285 20.7659 2.06762 20.3491 1.65087C19.9324 1.23413 19.3671 1 18.7778 1H3.22222C2.63285 1 2.06762 1.23413 1.65087 1.65087C1.23413 2.06762 1 2.63285 1 3.22222Z" fill="black"/>
</svg>
