<svg width="19" height="18" viewBox="0 0 19 18" fill="none" xmlns="http://www.w3.org/2000/svg">
<path d="M9.5 15L13.5 11L12.1 9.60001L10.5 11.2V7.00001H8.5V11.2L6.9 9.60001L5.5 11L9.5 15ZM2.5 18C1.95 18 1.47933 17.8043 1.088 17.413C0.696667 17.0217 0.500667 16.5507 0.5 16V3.52501C0.5 3.29167 0.537667 3.06667 0.613 2.85001C0.688333 2.63334 0.800667 2.43334 0.95 2.25001L2.2 0.725005C2.38333 0.491672 2.61233 0.312339 2.887 0.187005C3.16167 0.061672 3.44933 -0.000661376 3.75 5.291e-06H15.25C15.55 5.291e-06 15.8377 0.0626719 16.113 0.188005C16.3883 0.313339 16.6173 0.492339 16.8 0.725005L18.05 2.25001C18.2 2.43334 18.3127 2.63334 18.388 2.85001C18.4633 3.06667 18.5007 3.29167 18.5 3.52501V16C18.5 16.55 18.3043 17.021 17.913 17.413C17.5217 17.805 17.0507 18.0007 16.5 18H2.5ZM2.9 3.00001H16.1L15.25 2.00001H3.75L2.9 3.00001Z" fill="black"/>
</svg>
