<svg width="26" height="23" viewBox="0 0 26 23" fill="none" xmlns="http://www.w3.org/2000/svg">
<path fill-rule="evenodd" clip-rule="evenodd" d="M2.93412 4.86852C2.86121 5.20926 2.86121 5.61852 2.86121 6.43519V12.963C2.86121 16.4546 2.86121 18.2009 4.08204 19.2852C5.30287 20.3694 7.26641 20.3704 11.1945 20.3704H15.3612C19.2893 20.3704 21.2539 20.3704 22.4737 19.2852C23.6935 18.2 23.6945 16.4546 23.6945 12.963V10.9241C23.6945 8.48704 23.6945 7.26759 22.8925 6.47593C22.8189 6.40287 22.741 6.33333 22.6591 6.26759C21.7685 5.55556 20.3966 5.55556 17.655 5.55556H17.2654C16.0643 5.55556 15.4633 5.55556 14.9029 5.41389C14.5953 5.33575 14.2989 5.22638 14.0195 5.08796C13.5112 4.83704 13.0862 4.45833 12.2362 3.7037L11.6633 3.19444C11.3779 2.94074 11.2362 2.81482 11.0862 2.7037C10.4411 2.22837 9.64968 1.93699 8.81537 1.86759C8.62162 1.85185 8.41954 1.85185 8.01746 1.85185C7.09766 1.85185 6.63829 1.85185 6.25496 1.91667C5.43187 2.05484 4.67475 2.41031 4.08236 2.93671C3.48997 3.46312 3.08982 4.13693 2.93412 4.86852ZM17.7393 2.77778C18.1195 2.77778 18.3102 2.77778 18.4706 2.7963C19.531 2.92593 20.3748 3.66944 20.5685 4.62963C20.4098 4.59798 20.2496 4.57295 20.0883 4.55463C19.4216 4.47685 18.58 4.47685 17.5362 4.47685H17.1883C16.207 4.47685 15.8341 4.47222 15.4956 4.38333C15.2985 4.33148 15.109 4.25906 14.931 4.16759C14.6227 4.01019 14.356 3.7713 13.6622 3.13241L13.2779 2.77778H17.7393ZM14.3195 8.56482C14.1123 8.56482 13.9136 8.63798 13.7671 8.76821C13.6206 8.89845 13.5383 9.07508 13.5383 9.25926C13.5383 9.44344 13.6206 9.62007 13.7671 9.75031C13.9136 9.88054 14.1123 9.9537 14.3195 9.9537H19.5279C19.7351 9.9537 19.9338 9.88054 20.0803 9.75031C20.2268 9.62007 20.3091 9.44344 20.3091 9.25926C20.3091 9.07508 20.2268 8.89845 20.0803 8.76821C19.9338 8.63798 19.7351 8.56482 19.5279 8.56482H14.3195Z" fill="black"/>
</svg>
