<svg width="20" height="22" viewBox="0 0 20 22" fill="none" xmlns="http://www.w3.org/2000/svg">
<path d="M2.5 19.4375H6.25V13.1875C6.25 12.8333 6.37 12.5367 6.61 12.2975C6.85 12.0583 7.14667 11.9383 7.5 11.9375H12.5C12.8542 11.9375 13.1512 12.0575 13.3912 12.2975C13.6312 12.5375 13.7508 12.8342 13.75 13.1875V19.4375H17.5V8.1875L10 2.5625L2.5 8.1875V19.4375ZM0 19.4375V8.1875C0 7.79167 0.0887498 7.41667 0.26625 7.0625C0.44375 6.70833 0.688333 6.41667 1 6.1875L8.5 0.5625C8.9375 0.229167 9.4375 0.0625 10 0.0625C10.5625 0.0625 11.0625 0.229167 11.5 0.5625L19 6.1875C19.3125 6.41667 19.5575 6.70833 19.735 7.0625C19.9125 7.41667 20.0008 7.79167 20 8.1875V19.4375C20 20.125 19.755 20.7137 19.265 21.2037C18.775 21.6937 18.1867 21.9383 17.5 21.9375H12.5C12.1458 21.9375 11.8492 21.8175 11.61 21.5775C11.3708 21.3375 11.2508 21.0408 11.25 20.6875V14.4375H8.75V20.6875C8.75 21.0417 8.63 21.3387 8.39 21.5787C8.15 21.8187 7.85333 21.9383 7.5 21.9375H2.5C1.8125 21.9375 1.22417 21.6929 0.735 21.2037C0.245833 20.7146 0.000833333 20.1258 0 19.4375Z" fill="black"/>
</svg>
