<svg width="20" height="20" viewBox="0 0 20 20" fill="none" xmlns="http://www.w3.org/2000/svg">
<path d="M10 1L0 5.82843L10 12.2662L14.7629 9.19995L10.2948 7.44105C10.2027 7.49786 10.102 7.52749 10 7.52778C9.81828 7.52778 9.644 7.43483 9.5155 7.26939C9.387 7.10394 9.31482 6.87955 9.31482 6.64557C9.31482 6.4116 9.387 6.18721 9.5155 6.02176C9.644 5.85631 9.81828 5.76337 10 5.76337L9.88669 6.23766L10.6805 6.55211L10.6809 6.5552L11.8523 7.01643L18.522 9.65859V10.3283C18.4297 10.4091 18.3542 10.5177 18.302 10.6446C18.2497 10.7716 18.2223 10.913 18.2222 11.0567C18.2223 11.2036 18.251 11.3482 18.3055 11.4773C18.36 11.6064 18.4388 11.7159 18.5345 11.7958C18.2226 13.3135 18.2222 16.7569 18.2222 18.1143C18.9074 18.6874 18.9074 18.7084 19.5926 18.1143C19.5926 16.7571 19.5922 13.3143 19.2804 11.7963C19.3762 11.7163 19.4549 11.6067 19.5094 11.4775C19.564 11.3483 19.5925 11.2036 19.5926 11.0566C19.5926 10.9128 19.5652 10.7712 19.513 10.644C19.4607 10.5169 19.3852 10.4082 19.2928 10.3273V8.92569L16.7523 7.91926L20 5.82843L10 1ZM4.15979 9.78844L3.59781 14.13C4.71873 14.3187 6.05959 15.1576 7.29224 16.1495C7.99327 16.7137 8.64989 17.333 9.18318 17.9338C9.50915 18.301 9.78173 18.6533 10 19C10.2183 18.6533 10.4908 18.301 10.8168 17.9338C11.3501 17.333 12.0067 16.7137 12.7078 16.1495C13.9404 15.1576 15.2813 14.3187 16.4022 14.13L15.8401 9.78844H15.5725L10 13.3759L4.42744 9.78844H4.15979Z" fill="black"/>
</svg>
